<svg width="120" height="40" viewBox="0 0 120 40" fill="none" xmlns="http://www.w3.org/2000/svg">
<path fill-rule="evenodd" clip-rule="evenodd" d="M1.62866 39.8831V36.0427H0.745117V34.7876H1.62866V34.1918C1.62866 33.5891 1.78 33.1279 2.08108 32.809C2.38296 32.4897 2.80384 32.33 3.34453 32.33C3.51793 32.33 3.68581 32.3478 3.84897 32.3833C4.01212 32.4187 4.13823 32.4578 4.22887 32.5002V33.7237C4.15951 33.681 4.07754 33.6459 3.98453 33.6173C3.89074 33.5891 3.79537 33.575 3.69842 33.575C3.47616 33.575 3.30434 33.6371 3.18374 33.7608C3.06236 33.885 3.00167 34.064 3.00167 34.2982V34.7877H4.14531V36.0427H3.00167V39.8831H1.62866V39.8831ZM5.74672 33.7983C5.608 33.7983 5.47637 33.7628 5.35184 33.6919C5.2273 33.6209 5.12957 33.5286 5.061 33.4153C4.99164 33.302 4.95697 33.1742 4.95697 33.0323C4.95697 32.8832 4.99164 32.7521 5.061 32.6384C5.12957 32.5252 5.2273 32.4328 5.35184 32.3619C5.47637 32.2913 5.608 32.2559 5.74672 32.2559C5.88544 32.2559 6.01548 32.2913 6.13687 32.3619C6.25825 32.4328 6.3552 32.5252 6.42849 32.6384C6.50101 32.7521 6.53726 32.8832 6.53726 33.0323C6.53726 33.1742 6.501 33.302 6.42849 33.4153C6.3552 33.5286 6.25825 33.6209 6.13687 33.6919C6.01549 33.7628 5.88544 33.7983 5.74672 33.7983ZM5.06101 39.8831V34.7554H6.43323V38.6832V39.8831H5.06101ZM7.72949 39.883V34.7553H9.07097V35.479H9.09146C9.21599 35.2593 9.41539 35.0657 9.68969 34.8993C9.96318 34.7327 10.2737 34.6493 10.6197 34.6493C10.9878 34.6493 11.3165 34.736 11.6081 34.9097C11.899 35.0835 12.1259 35.3371 12.2891 35.6705C12.4523 36.0039 12.5334 36.3974 12.5334 36.8513V39.883H11.1604V37.0214C11.1604 36.8086 11.121 36.6243 11.0414 36.4683C10.9618 36.3123 10.8491 36.1918 10.7033 36.1067C10.5575 36.0216 10.3912 35.9789 10.2044 35.9789C9.9963 35.9789 9.80872 36.0285 9.64241 36.1277C9.47611 36.2272 9.34448 36.3691 9.24753 36.5534C9.15059 36.738 9.10171 36.9469 9.10171 37.1811V39.883H7.72949ZM20.0758 39.883V34.7553H21.4173V35.479H21.4378C21.5623 35.2593 21.7617 35.0657 22.036 34.8993C22.3095 34.7327 22.6201 34.6493 22.9661 34.6493C23.3342 34.6493 23.6628 34.736 23.9545 34.9097C24.2453 35.0835 24.4723 35.3371 24.6355 35.6705C24.7986 36.0039 24.8798 36.3974 24.8798 36.8513V39.883H23.5068V37.0214C23.5068 36.8086 23.4674 36.6243 23.3878 36.4683C23.3082 36.3123 23.1955 36.1918 23.0497 36.1067C22.9038 36.0216 22.7375 35.9789 22.5507 35.9789C22.3427 35.9789 22.1551 36.0285 21.9888 36.1277C21.8225 36.2272 21.6908 36.3691 21.5939 36.5534C21.4969 36.738 21.4481 36.9469 21.4481 37.1811V39.883H20.0758ZM28.5069 40C28.0001 40 27.5429 39.8815 27.1339 39.6436C26.7248 39.4062 26.4025 39.0836 26.1668 38.6757C25.9311 38.2681 25.8137 37.8157 25.8137 37.3195C25.8137 36.8232 25.9311 36.3692 26.1668 35.9576C26.4025 35.5464 26.7248 35.2219 27.1339 34.9844C27.543 34.747 28.0001 34.628 28.5069 34.628C28.8395 34.628 29.1493 34.6812 29.4369 34.7877C29.7246 34.8941 29.9729 35.0251 30.181 35.1811C30.3891 35.3372 30.5585 35.5041 30.6901 35.6811L29.7853 36.5107C29.6403 36.3406 29.4645 36.1971 29.2604 36.0802C29.0563 35.9629 28.8222 35.9044 28.5589 35.9044C28.302 35.9044 28.0702 35.9649 27.8622 36.0854C27.6541 36.206 27.4909 36.3745 27.3735 36.5906C27.2553 36.8071 27.1962 37.0498 27.1962 37.3195C27.1962 37.5888 27.2553 37.8298 27.3735 38.0427C27.4909 38.2556 27.6541 38.4241 27.8622 38.5479C28.0703 38.672 28.302 38.7341 28.5589 38.7341C28.8222 38.7341 29.061 38.674 29.2762 38.5535C29.4905 38.433 29.6781 38.2806 29.8373 38.0959L30.7319 38.9365C30.5097 39.2199 30.2054 39.4683 29.8169 39.6811C29.4283 39.8936 28.9916 40 28.5069 40L28.5069 40ZM32.3057 33.7983C32.1669 33.7983 32.0353 33.7628 31.9108 33.6919C31.7863 33.6209 31.6885 33.5286 31.62 33.4153C31.5506 33.302 31.5159 33.1742 31.5159 33.0323C31.5159 32.8832 31.5506 32.7521 31.62 32.6384C31.6885 32.5252 31.7863 32.4328 31.9108 32.3619C32.0353 32.2913 32.1669 32.2559 32.3057 32.2559C32.4444 32.2559 32.5744 32.2913 32.6958 32.3619C32.8172 32.4328 32.9141 32.5252 32.9874 32.6384C33.06 32.7521 33.0962 32.8832 33.0962 33.0323C33.0962 33.1742 33.06 33.302 32.9874 33.4153C32.9141 33.5286 32.8172 33.6209 32.6958 33.6919C32.5744 33.7628 32.4444 33.7983 32.3057 33.7983ZM31.62 39.8831V34.7554H32.9922V38.6832V39.8831H31.62ZM40.5047 39.8831V32.4365H41.8769V38.6832V39.8831H40.5047ZM15.8841 39.9709C15.6177 39.9709 15.3429 39.9162 15.0599 39.8074C14.777 39.6986 14.5172 39.5351 14.2808 39.3169C14.0444 39.099 13.8513 38.8231 13.7015 38.4892C13.5516 38.1553 13.4767 37.7637 13.4767 37.3138C13.4767 36.8643 13.55 36.4727 13.6966 36.1388C13.8429 35.8052 14.0327 35.5274 14.2659 35.3059C14.4989 35.0847 14.7603 34.9212 15.05 34.8153C15.3397 34.7098 15.6245 34.6571 15.9041 34.6571C16.2303 34.6571 16.5185 34.7134 16.7681 34.8258C17.018 34.9382 17.226 35.0831 17.3924 35.26V34.7554H18.7611V39.8831H17.3924V39.2966C17.226 39.4942 17.0144 39.6557 16.7582 39.7819C16.5018 39.9077 16.2103 39.9709 15.8841 39.9709V39.9709ZM16.1538 38.6832C16.3402 38.6832 16.5117 38.6474 16.6682 38.576C16.8247 38.5046 16.9595 38.4056 17.0729 38.2798C17.186 38.1536 17.2742 38.0072 17.3375 37.8404C17.4007 37.6733 17.4324 37.4947 17.4324 37.3037C17.4324 37.113 17.4007 36.9344 17.3375 36.7673C17.2742 36.6005 17.186 36.4557 17.0729 36.3331C16.9595 36.2102 16.8247 36.1132 16.6682 36.0418C16.5117 35.97 16.3402 35.9343 16.1538 35.9343C15.9606 35.9343 15.7825 35.9687 15.6194 36.0366C15.4562 36.1047 15.3147 36.2001 15.195 36.3226C15.075 36.4455 14.9816 36.5903 14.9152 36.7571C14.8485 36.9239 14.8152 37.1061 14.8152 37.3037C14.8152 37.5016 14.8485 37.6834 14.9152 37.8505C14.9816 38.0173 15.075 38.1622 15.195 38.2847C15.3148 38.4073 15.4562 38.5046 15.6194 38.576C15.7826 38.6474 15.9606 38.6832 16.1538 38.6832ZM36.3463 39.9709C36.0799 39.9709 35.8051 39.9162 35.5221 39.8074C35.2391 39.6986 34.9794 39.5351 34.743 39.3169C34.5066 39.099 34.3135 38.8231 34.1637 38.4892C34.0138 38.1553 33.9389 37.7637 33.9389 37.3138C33.9389 36.8643 34.0122 36.4727 34.1588 36.1388C34.3051 35.8052 34.4949 35.5274 34.7281 35.3059C34.9611 35.0847 35.2225 34.9212 35.5122 34.8153C35.8019 34.7098 36.0867 34.6571 36.3663 34.6571C36.6925 34.6571 36.9806 34.7134 37.2303 34.8258C37.4802 34.9382 37.6882 35.0831 37.8546 35.26V34.7554H39.2233V39.8831H37.8546V39.2966C37.6882 39.4942 37.4766 39.6557 37.2204 39.7819C36.964 39.9077 36.6725 39.9709 36.3463 39.9709L36.3463 39.9709ZM36.616 38.6832C36.8024 38.6832 36.9739 38.6474 37.1304 38.576C37.2869 38.5046 37.4217 38.4056 37.5351 38.2798C37.6482 38.1536 37.7364 38.0072 37.7997 37.8404C37.8629 37.6733 37.8946 37.4947 37.8946 37.3037C37.8946 37.113 37.8629 36.9344 37.7997 36.7673C37.7364 36.6005 37.6482 36.4557 37.5351 36.3331C37.4217 36.2102 37.2869 36.1132 37.1304 36.0418C36.9739 35.97 36.8024 35.9343 36.616 35.9343C36.4228 35.9343 36.2447 35.9687 36.0815 36.0366C35.9184 36.1047 35.7769 36.2001 35.6571 36.3226C35.5372 36.4455 35.4438 36.5903 35.3773 36.7571C35.3107 36.9239 35.2774 37.1061 35.2774 37.3037C35.2774 37.5016 35.3107 37.6834 35.3773 37.8505C35.4438 38.0173 35.5372 38.1622 35.6571 38.2847C35.7769 38.4073 35.9183 38.5046 36.0815 38.576C36.2447 38.6474 36.4228 38.6832 36.616 38.6832Z" fill="#20113E"/>
<path fill-rule="evenodd" clip-rule="evenodd" d="M5.7279 28.7431C4.67143 28.7431 3.7053 28.4885 2.8295 27.9791C1.95447 27.4692 1.26394 26.771 0.757902 25.8829C0.252631 24.9952 0 24.0182 0 22.9527C0 21.8724 0.252631 20.8879 0.757902 19.9998C1.26394 19.1121 1.95447 18.4131 2.8295 17.9037C3.7053 17.3942 4.67143 17.1393 5.7279 17.1393C6.45212 17.1393 7.11662 17.2517 7.71988 17.4753C8.32391 17.6993 8.84832 17.9773 9.29387 18.309C9.73866 18.641 10.1046 18.9923 10.3917 19.3627L8.64851 20.9377C8.2864 20.552 7.8707 20.2238 7.40294 19.9536C6.93518 19.6834 6.39164 19.5483 5.77307 19.5483C5.16904 19.5483 4.6186 19.6952 4.12022 19.9881C3.62184 20.2818 3.23371 20.6871 2.95428 21.2043C2.67484 21.7216 2.53551 22.3043 2.53551 22.9527C2.53551 23.5863 2.67484 24.1651 2.95428 24.6898C3.23371 25.2153 3.62184 25.6245 4.12022 25.9174C4.6186 26.2111 5.16904 26.3575 5.77307 26.3575C6.40695 26.3575 6.97269 26.2185 7.47108 25.9409C7.96946 25.6629 8.39127 25.3077 8.73884 24.8754L10.505 26.4504C10.0219 27.0679 9.36506 27.6047 8.5352 28.0601C7.70533 28.5152 6.76906 28.7431 5.7279 28.7431V28.7431ZM19.916 27.9791C20.7918 27.4692 21.4785 26.771 21.9769 25.8829C22.4745 24.9952 22.7241 24.0182 22.7241 22.9527C22.7241 21.8724 22.4745 20.8879 21.9769 19.9998C21.4785 19.1121 20.7918 18.4131 19.916 17.9037C19.041 17.3942 18.0672 17.1393 16.9954 17.1393C15.9389 17.1393 14.9728 17.3942 14.0978 17.9037C13.222 18.4131 12.5314 19.1121 12.0262 19.9998C11.5201 20.8879 11.2675 21.8724 11.2675 22.9527C11.2675 24.0182 11.5201 24.9952 12.0262 25.8829C12.5314 26.771 13.222 27.4692 14.0978 27.9791C14.9728 28.4885 15.9389 28.7431 16.9954 28.7431C18.0672 28.7431 19.041 28.4885 19.916 27.9791ZM15.377 25.9174C14.8863 25.6245 14.5012 25.2153 14.2226 24.6898C13.9424 24.1651 13.803 23.5863 13.803 22.9527C13.803 22.3043 13.9424 21.7216 14.2226 21.2043C14.5012 20.6871 14.8863 20.2818 15.377 19.9881C15.867 19.6952 16.4067 19.5483 16.9954 19.5483C17.5994 19.5483 18.1468 19.6952 18.6368 19.9881C19.1275 20.2818 19.5087 20.6871 19.7805 21.2043C20.0523 21.7216 20.1878 22.3043 20.1878 22.9527C20.1878 23.5863 20.0523 24.1651 19.7805 24.6898C19.5087 25.2153 19.1275 25.6245 18.6368 25.9174C18.1468 26.2111 17.5994 26.3575 16.9954 26.3575C16.4067 26.3575 15.867 26.2111 15.377 25.9174ZM27.0931 28.5116V22.9993C27.0931 22.3662 27.221 21.7988 27.4782 21.2967C27.7346 20.7951 28.0814 20.409 28.5193 20.1388C28.9572 19.8686 29.4403 19.7336 29.9685 19.7336C30.1347 19.7336 30.3 19.7449 30.4669 19.768C30.6323 19.7915 30.7754 19.8185 30.8972 19.8491V17.1393H30.3536C29.8705 17.1393 29.4097 17.2243 28.9725 17.3943C28.5346 17.5642 28.161 17.7803 27.8518 18.0427C27.5417 18.3055 27.3044 18.5753 27.1383 18.8533H27.0701V17.3712L24.5798 17.3711V28.5116L27.0931 28.5116ZM39.7795 28.1412C40.5948 27.7398 41.2134 27.2765 41.636 26.7514L40.1416 25.1299C39.7489 25.5007 39.3041 25.8058 38.8057 26.045C38.3081 26.2847 37.7492 26.4037 37.1307 26.4037C36.5565 26.4037 36.0329 26.2882 35.5575 26.0564C35.0813 25.825 34.697 25.5086 34.4022 25.1068C34.1082 24.7054 33.923 24.2578 33.848 23.7637H42.1114C42.142 23.6399 42.168 23.4739 42.191 23.2656C42.2132 23.0573 42.2247 22.8294 42.2247 22.5823C42.2247 21.5481 41.9943 20.6177 41.5342 19.7915C41.0733 18.9656 40.4325 18.3168 39.6096 17.8457C38.7866 17.375 37.8626 17.1393 36.8359 17.1393C35.8093 17.1393 34.87 17.3981 34.0172 17.9154C33.1643 18.4327 32.4853 19.1313 31.98 20.0111C31.474 20.8914 31.2214 21.8723 31.2214 22.9527C31.2214 24.0182 31.474 24.9952 31.98 25.8829C32.4853 26.771 33.1796 27.4692 34.0631 27.979C34.9458 28.4885 35.9226 28.743 36.9952 28.743C38.0364 28.743 38.9642 28.5425 39.7795 28.1411L39.7795 28.1412ZM33.8021 21.9108C33.9376 21.3861 34.1374 20.9377 34.4015 20.5673C34.6656 20.1969 35.0055 19.9036 35.4205 19.687C35.8354 19.4713 36.307 19.3628 36.8352 19.3628C37.3336 19.3628 37.7753 19.4713 38.1604 19.687C38.5447 19.9036 38.8616 20.1969 39.1112 20.5673C39.36 20.9377 39.5376 21.3861 39.6433 21.9108H33.8021ZM52.7753 27.9904C53.5454 27.4888 54.164 26.7977 54.6317 25.9174C55.0995 25.0375 55.3338 24.0496 55.3338 22.9527C55.3338 21.841 55.0995 20.8452 54.6317 19.965C54.164 19.0851 53.5454 18.3939 52.7753 17.8919C52.0059 17.3903 51.1753 17.1393 50.2849 17.1393C49.7107 17.1393 49.1787 17.2321 48.6887 17.4173C48.198 17.6026 47.7754 17.8265 47.421 18.0889C47.0657 18.3517 46.8054 18.6297 46.6401 18.923H46.5942V12.2986H44.0816V28.5116H46.5719V26.9367H46.6171C46.7985 27.23 47.0619 27.5119 47.4095 27.7821C47.7563 28.0523 48.1796 28.2802 48.6772 28.4654C49.1756 28.6506 49.7107 28.7431 50.2849 28.7431C51.1753 28.7431 52.0059 28.4924 52.7753 27.9904H52.7753ZM48.1333 25.8943C47.6655 25.6014 47.2919 25.1961 47.0133 24.6785C46.7331 24.1612 46.5938 23.5863 46.5938 22.9528C46.5938 22.3043 46.7331 21.7216 47.0133 21.2043C47.2919 20.6871 47.6655 20.2818 48.1333 19.9881C48.601 19.6952 49.1224 19.5483 49.6958 19.5483C50.2692 19.5483 50.7898 19.6952 51.2583 19.9881C51.7261 20.2818 52.0958 20.6871 52.3676 21.2043C52.6394 21.7216 52.7749 22.3043 52.7749 22.9528C52.7749 23.5863 52.6394 24.1612 52.3676 24.6785C52.0958 25.1961 51.7261 25.6014 51.2583 25.8943C50.7898 26.188 50.2692 26.3344 49.6958 26.3344C49.1224 26.3344 48.601 26.188 48.1333 25.8943ZM59.6809 28.5116V22.9993C59.6809 22.3661 59.8087 21.7987 60.0652 21.2967C60.3216 20.7951 60.6692 20.409 61.1071 20.1388C61.5442 19.8686 62.0273 19.7335 62.5555 19.7335C62.7217 19.7335 62.8878 19.7449 63.0539 19.768C63.2201 19.7915 63.3632 19.8185 63.4842 19.849V17.1393H62.9406C62.4575 17.1393 61.9974 17.2243 61.5595 17.3942C61.1217 17.5641 60.7481 17.7803 60.4388 18.0427C60.1295 18.3054 59.8914 18.5752 59.726 18.8532H59.6579V17.3711H57.1675V28.5116H59.6809ZM66.9946 15.078C67.2212 14.939 67.4057 14.7577 67.5497 14.5337C67.6928 14.3101 67.7648 14.0587 67.7648 13.7811C67.7648 13.5031 67.6928 13.2521 67.5497 13.0281C67.4057 12.8045 67.2212 12.6267 66.9946 12.4956C66.768 12.3644 66.5269 12.2986 66.2704 12.2986C66.0132 12.2986 65.7682 12.3644 65.5347 12.4956C65.3004 12.6267 65.1159 12.8045 64.9797 13.0281C64.8442 13.2521 64.776 13.5031 64.776 13.7811C64.776 14.0587 64.8442 14.3101 64.9797 14.5337C65.116 14.7577 65.3004 14.939 65.5347 15.078C65.7682 15.217 66.0132 15.2864 66.2704 15.2864C66.5269 15.2864 66.768 15.217 66.9946 15.078ZM67.5152 28.5115V27.0978V17.371H65.0026V28.5115H67.5152ZM76.1176 28.4654C76.6159 28.2802 77.0424 28.0523 77.3968 27.7821C77.7513 27.5119 78.0116 27.23 78.1785 26.9367H78.2236V28.5116H80.714V12.2986H78.2007V18.923H78.1555C77.9894 18.6297 77.7291 18.3517 77.3746 18.0889C77.0194 17.8265 76.5968 17.6026 76.1069 17.4173C75.6161 17.2321 75.0841 17.1393 74.5107 17.1393C73.6196 17.1393 72.7897 17.3903 72.0195 17.8919C71.2502 18.3939 70.6308 19.0851 70.1631 19.965C69.6953 20.8452 69.4618 21.841 69.4618 22.9527C69.4618 24.0496 69.6953 25.0375 70.1631 25.9174C70.6308 26.7977 71.2502 27.4888 72.0195 27.9904C72.7897 28.4924 73.6196 28.7431 74.5107 28.7431C75.0841 28.7431 75.62 28.6506 76.1176 28.4654V28.4654ZM73.5364 25.8943C73.0687 25.6014 72.6989 25.1961 72.4271 24.6784C72.1554 24.1612 72.0191 23.5863 72.0191 22.9527C72.0191 22.3043 72.1554 21.7216 72.4271 21.2043C72.6989 20.687 73.0687 20.2818 73.5364 19.9881C74.0042 19.6952 74.5248 19.5483 75.0989 19.5483C75.6723 19.5483 76.1929 19.6952 76.6607 19.9881C77.1284 20.2818 77.502 20.687 77.7815 21.2043C78.0609 21.7216 78.2002 22.3043 78.2002 22.9527C78.2002 23.5863 78.0609 24.1612 77.7815 24.6784C77.502 25.1961 77.1284 25.6014 76.6607 25.8943C76.1929 26.188 75.6723 26.3344 75.0989 26.3344C74.5248 26.3344 74.0042 26.188 73.5364 25.8943ZM103.897 28.1412C104.712 27.7398 105.331 27.2765 105.753 26.7514L104.259 25.1299C103.866 25.5007 103.421 25.8058 102.923 26.045C102.425 26.2847 101.866 26.4037 101.248 26.4037C100.674 26.4037 100.15 26.2882 99.6747 26.0564C99.1985 25.825 98.8142 25.5086 98.5194 25.1068C98.2255 24.7054 98.0402 24.2578 97.9652 23.7637H106.229C106.259 23.6399 106.285 23.4739 106.308 23.2656C106.33 23.0573 106.342 22.8294 106.342 22.5823C106.342 21.5481 106.111 20.6177 105.651 19.7915C105.191 18.9656 104.55 18.3168 103.727 17.8457C102.904 17.375 101.98 17.1393 100.953 17.1393C99.9265 17.1393 98.9872 17.3981 98.1344 17.9154C97.2815 18.4327 96.6025 19.1313 96.0972 20.0111C95.5912 20.8914 95.3385 21.8723 95.3385 22.9527C95.3385 24.0182 95.5912 24.9952 96.0972 25.8829C96.6025 26.771 97.2968 27.4692 98.1803 27.979C99.063 28.4885 100.04 28.743 101.112 28.743C102.154 28.743 103.081 28.5425 103.897 28.1411L103.897 28.1412ZM97.9202 21.9107C98.0557 21.386 98.2555 20.9377 98.5197 20.5672C98.7838 20.1968 99.1237 19.9035 99.5386 19.687C99.9536 19.4712 100.425 19.3627 100.953 19.3627C101.452 19.3627 101.893 19.4712 102.279 19.687C102.663 19.9035 102.98 20.1968 103.229 20.5672C103.478 20.9377 103.656 21.386 103.761 21.9107H97.9202ZM90.7146 21.2043C90.4352 20.6871 90.0616 20.2818 89.5938 19.9881C89.1261 19.6952 88.6055 19.5483 88.0321 19.5483C87.4579 19.5483 86.9373 19.6952 86.4696 19.9881C86.0018 20.2818 85.6321 20.687 85.3603 21.2043C85.0885 21.7216 84.9523 22.3043 84.9523 22.9527C84.9523 23.5863 85.0885 24.1612 85.3603 24.6784C85.6321 25.1961 86.0018 25.6014 86.4696 25.8943C86.9373 26.188 87.4579 26.3344 88.0321 26.3344C88.6055 26.3344 89.1261 26.188 89.5938 25.8943C90.0616 25.6014 90.4352 25.1961 90.7146 24.6784C90.994 24.1612 91.1334 23.5863 91.1334 22.9527C91.1334 22.3043 90.994 21.7216 90.7146 21.2043ZM91.1338 26.9366H91.1116C90.9447 27.2299 90.6844 27.5119 90.33 27.7821C89.9755 28.0522 89.5491 28.2801 89.0507 28.4654C88.5531 28.6506 88.0172 28.743 87.4438 28.743C86.5527 28.743 85.7228 28.4924 84.9527 27.9904C84.1833 27.4888 83.564 26.7976 83.0962 25.9173C82.6285 25.0375 82.395 24.0495 82.395 22.9527C82.395 21.841 82.6285 20.8452 83.0962 19.9649C83.564 19.085 84.1833 18.3939 84.9527 17.8919C85.7229 17.3903 86.5527 17.1393 87.4438 17.1393C88.0172 17.1393 88.5493 17.2321 89.04 17.4173C89.53 17.6025 89.9525 17.8265 90.3078 18.0889C90.6622 18.3516 90.9225 18.6296 91.0886 18.9229H91.1338V17.3711H93.6471L93.6471 27.9915C93.6471 29.1701 93.5146 30.2239 93.0174 31.1523C92.5202 32.0811 91.822 32.8076 90.9221 33.3326C90.0221 33.8573 88.9957 34.1198 87.8436 34.1198C86.7387 34.1198 85.7202 33.8691 84.7891 33.3691C83.8571 32.8682 83.1728 32.2788 82.6597 31.6974L84.4356 29.9778C84.7752 30.3352 85.2314 30.7528 85.8375 31.0883C86.4344 31.4186 87.122 31.6287 87.7723 31.6249C88.4672 31.6209 89.063 31.4754 89.5602 31.1769C90.0574 30.8779 90.4441 30.4536 90.7203 29.9048C90.9965 29.3557 91.135 28.7102 91.135 27.9669L91.1338 26.9366Z" fill="#20113E"/>
<path fill-rule="evenodd" clip-rule="evenodd" d="M119.998 1.03713C119.998 1.60992 119.544 2.07427 118.985 2.07427C118.425 2.07427 117.971 1.60993 117.971 1.03713C117.971 0.464345 118.425 0 118.985 0C119.544 0 119.998 0.464336 119.998 1.03713Z" fill="#CC6FE3"/>
<path fill-rule="evenodd" clip-rule="evenodd" d="M116.113 2.78404C116.113 3.56412 115.495 4.1965 114.732 4.1965C113.97 4.1965 113.352 3.56412 113.352 2.78404C113.352 2.00396 113.97 1.37158 114.732 1.37158C115.495 1.37158 116.113 2.00396 116.113 2.78404Z" fill="#C053EF"/>
<path fill-rule="evenodd" clip-rule="evenodd" d="M118.75 5.10221C118.75 5.77377 118.218 6.31819 117.562 6.31819C116.905 6.31819 116.373 5.77378 116.373 5.10221C116.373 4.43065 116.905 3.88623 117.562 3.88623C118.218 3.88623 118.75 4.43064 118.75 5.10221Z" fill="#C053EF"/>
<path fill-rule="evenodd" clip-rule="evenodd" d="M111.155 4.98538C111.155 6.19824 110.194 7.18145 109.008 7.18145C107.822 7.18145 106.861 6.19824 106.861 4.98538C106.861 3.77252 107.822 2.78931 109.008 2.78931C110.194 2.78931 111.155 3.77252 111.155 4.98538Z" fill="#843DEF"/>
<path fill-rule="evenodd" clip-rule="evenodd" d="M116.381 9.49536C116.381 10.4573 115.618 11.2371 114.678 11.2371C113.738 11.2371 112.976 10.4573 112.976 9.49536C112.976 8.53345 113.738 7.75366 114.678 7.75366C115.618 7.75366 116.381 8.53345 116.381 9.49536Z" fill="#843DEF"/>
<path fill-rule="evenodd" clip-rule="evenodd" d="M104.289 8.05576C104.289 9.77981 102.922 11.1774 101.237 11.1774C99.5518 11.1774 98.1855 9.77981 98.1855 8.05576C98.1855 6.3317 99.5518 4.93408 101.237 4.93408C102.922 4.93408 104.289 6.3317 104.289 8.05576Z" fill="#4F00CA"/>
<path fill-rule="evenodd" clip-rule="evenodd" d="M115.555 16.9893C115.555 18.3595 114.47 19.4702 113.13 19.4702C111.791 19.4702 110.705 18.3595 110.705 16.9893C110.705 15.6191 111.791 14.5083 113.13 14.5083C114.47 14.5083 115.555 15.6191 115.555 16.9893Z" fill="#4F00CA"/>
</svg>
